<svg xmlns="http://www.w3.org/2000/svg" viewBox="1.584998369216919 1.0200456380844116 46.83000183105469 47.95920181274414"><g><g fill="#e4e8f4"><path d="m6.965 6.825.01-4.5c0-.17.06-.3.16-.35.01-.01.02-.01.03-.01l.96-.57c.1-.06.24-.05.39.04l3.92 2.26c.3.17.54.59.54.94l-.01 4.5c-.01.17-.07.29-.16.35l-.98.57-.01.01c-.1.05-.24.05-.39-.04l-3.92-2.26c-.3-.18-.54-.6-.54-.94zM3.955 19.865l.01-4.51c0-.17.06-.29.16-.34.01-.01.02-.01.03-.01l.96-.57c.11-.06.24-.05.39.04l3.92 2.26c.3.17.55.59.54.94l-.01 4.5c0 .17-.06.29-.16.35l-.96.55c-.1.08-.26.09-.42-.01l-3.91-2.26c-.31-.18-.55-.6-.55-.94zM11.725 17.865l.01-4.5c0-.18.07-.3.17-.35l.01-.01.97-.57c.1-.05.24-.05.39.04l3.92 2.26c.3.18.54.6.54.94l-.01 4.5c0 .18-.06.3-.16.35l-.96.56c-.01.01-.02.02-.03.02-.1.06-.24.05-.39-.04l-3.92-2.26c-.3-.17-.54-.59-.54-.94z" fill="#e4e8f4" opacity="1" data-original="#e4e8f4"></path><path d="m48.415 26.135-.01 4.5c-.01.17-.07.29-.16.35l-1 .58c.01-.01.02-.01.02-.02-.01.01-.02.01-.04.02l-.02 5.47c0 .16-.06.27-.15.33l-.62.36c.05-.03.08-.07.11-.13-.08.13-.21.18-.39.1.12.08.18.17.19.27l-.01 1.43c0 .11-.07.22-.2.3l-10.08 5.86-7.29 3.31c-.28.15-.74.15-1.02 0l-25.94-14.98c-.15-.08-.22-.19-.22-.3l.01-.48v-.02h.01c0-.11.07-.21.2-.28l17.37-10.1c.26-.15.69-.15.97-.01-.28-.17-.51-.56-.5-.89l.05-20.08c0-.18.08-.3.19-.34l.57-.33c.09-.05.22-.04.36.03l16.26 9.39.01-2.28c0-.18.06-.3.16-.35.01-.01.02-.01.03-.01l.96-.57c.1-.05.24-.05.39.04l3.92 2.26c.3.18.54.6.54.94l-.01 3.43 3.67 2.12c.29.17.52.57.52.9l-.02 7.88.62.36c.3.17.55.59.55.94z" fill="#e4e8f4" opacity="1" data-original="#e4e8f4"></path></g><path fill="#cad0dd" d="m46.347 37.96-.009 1.438c0 .106-.07.22-.202.3l-10.081 5.857-7.288 3.305c-.282.159-.741.159-1.023 0L1.8 33.882c-.141-.08-.212-.186-.212-.3l.01-.509c0 .106.07.22.21.3l25.935 14.978c.282.159.75.159 1.023 0l17.369-10.09c.14-.08.211-.195.211-.301z" opacity="1" data-original="#cad0dd"></path><path fill="#e4e8f4" d="M46.134 37.685c.281.163.283.43.003.592L28.77 48.37c-.28.163-.74.163-1.022 0L1.807 33.394c-.282-.163-.283-.43-.003-.592l17.368-10.093c.28-.163.74-.163 1.021 0zM47.261 16.95l-.052 20.085c0 .16-.062.274-.15.327l-.627.361c.097-.053.15-.168.15-.326l.062-20.086c0-.326-.23-.723-.512-.89L20.2 1.45c-.142-.088-.274-.088-.37-.035l.625-.362c.089-.052.22-.044.362.035L46.75 16.06c.282.168.511.565.511.89z" opacity="1" data-original="#e4e8f4"></path><path fill="#e4e8f4" d="M46.146 16.402c.282.163.512.561.511.885L46.6 37.374c0 .324-.232.456-.514.293L20.151 22.694c-.287-.166-.512-.562-.51-.885l.056-20.088c.001-.323.227-.458.514-.292zm.139 20.79.057-20.087a.43.43 0 0 0-.197-.34L20.21 1.79c-.112-.065-.203-.014-.203.11l-.057 20.087c0 .13.09.278.202.343l25.935 14.974c.113.065.197.017.198-.113" opacity="1" data-original="#e4e8f4"></path><path fill="#5b5e71" d="M46.146 16.76 20.213 1.791c-.115-.062-.203-.017-.203.106l-.062 20.094c0 .124.088.274.203.344l25.934 14.97c.114.061.203.017.203-.115l.053-20.086a.437.437 0 0 0-.195-.344zm-.767 9.571-.026 8.918-24.461-14.122.053-17.827 24.46 14.122z" opacity="1" data-original="#5b5e71"></path><path fill="#748bfd" d="m20.945 3.3-.053 17.827 24.46 14.122.053-17.827z" opacity="1" data-original="#748bfd"></path><path fill="#5b5e71" d="M21.316 24.228c.113.066.109.17 0 .232l-.54.312a.43.43 0 0 1-.4 0l-1.16-.673c-.114-.067-.114-.167-.001-.232l.54-.313a.44.44 0 0 1 .4.001zM20.22 24.862c.114.066.108.17 0 .232l-1.16.672a.44.44 0 0 1-.4-.001l-1.161-.673c-.114-.066-.11-.17-.001-.232l1.16-.672a.44.44 0 0 1 .401.001zM28.36 28.313c.108.063.108.17 0 .232l-.54.312a.44.44 0 0 1-.4 0l-1.166-.677c-.108-.063-.109-.163.005-.229l.54-.312a.438.438 0 0 1 .395-.002zM26.597 27.29c.114.067.11.17.001.233l-.54.312a.43.43 0 0 1-.4 0l-1.16-.674c-.115-.066-.115-.166-.002-.232l.54-.312a.44.44 0 0 1 .4 0zM25.322 27.821c.114.066.109.17.001.232l-1.16.672a.44.44 0 0 1-.401-.001l-1.16-.673c-.114-.066-.11-.17-.001-.232l1.16-.672a.44.44 0 0 1 .4.001zM30.122 29.335c.108.063.109.17 0 .232l-.54.312a.44.44 0 0 1-.4 0l-1.166-.677c-.108-.063-.114-.166 0-.232l.54-.312a.45.45 0 0 1 .4 0zM32.128 31.768c.108.063.108.17 0 .232l-1.16.671a.45.45 0 0 1-.4 0l-1.167-.677c-.108-.063-.109-.169 0-.232l1.16-.671a.45.45 0 0 1 .4 0zM35.403 32.398c.109.063.11.17.001.232l-.54.312a.44.44 0 0 1-.4 0l-1.166-.677c-.108-.063-.114-.166 0-.232l.539-.312a.45.45 0 0 1 .4 0zM33.83 32.755c.109.063.103.167-.004.229l-1.161.672a.438.438 0 0 1-.395.002l-1.166-.676c-.114-.066-.109-.17 0-.232l1.16-.672a.44.44 0 0 1 .4.001zM19.397 26.318c.109.063.11.17.001.232l-1.16.671a.45.45 0 0 1-.401 0l-2.007-1.164c-.114-.066-.108-.17 0-.232l1.16-.671a.44.44 0 0 1 .4 0zM21.067 27.286c.109.063.11.17.001.232l-1.16.672a.45.45 0 0 1-.401 0l-1.166-.677c-.108-.063-.109-.17 0-.232l1.16-.671a.45.45 0 0 1 .4 0zM22.732 28.252c.108.063.109.17 0 .232l-1.16.671a.45.45 0 0 1-.4 0l-1.16-.673c-.115-.066-.11-.17-.002-.232l1.161-.672a.44.44 0 0 1 .4 0zM19.817 28.494c.108.063.103.166-.005.229l-1.16.671a.427.427 0 0 1-.39 0l-1.166-.677c-.109-.063-.115-.166-.007-.228l1.161-.672a.45.45 0 0 1 .4 0zM27.025 28.809c.108.062.109.17 0 .231l-1.16.672a.45.45 0 0 1-.4 0l-1.166-.677c-.109-.063-.11-.17-.001-.232l1.16-.671a.45.45 0 0 1 .401 0zM17.232 28.928c.108.063.103.166-.005.228l-1.155.669a.429.429 0 0 1-.395.002l-3.113-1.805c-.108-.063-.114-.166 0-.232l1.155-.668a.45.45 0 0 1 .4 0zM24.435 29.24c.108.062.109.169 0 .231l-1.16.672a.45.45 0 0 1-.4 0l-1.167-.677c-.108-.063-.108-.17 0-.232l1.16-.672a.45.45 0 0 1 .4.001zM21.481 29.46c.109.062.109.169.001.231l-1.16.672a.438.438 0 0 1-.396-.004l-1.166-.676c-.108-.063-.114-.167-.006-.23l1.161-.67a.45.45 0 0 1 .4 0zM28.728 29.796c.108.063.103.166-.005.229l-1.16.671a.438.438 0 0 1-.396.003l-1.166-.676c-.108-.063-.109-.17 0-.232l1.16-.672a.45.45 0 0 1 .4 0zM19.043 29.915c.114.066.108.17 0 .232l-1.16.672a.44.44 0 0 1-.4-.001l-1.161-.673c-.109-.063-.11-.17-.001-.232l1.16-.672a.45.45 0 0 1 .401.001zM26.132 30.224c.114.066.109.169 0 .231l-1.16.672a.44.44 0 0 1-.4 0l-1.161-.674c-.108-.062-.109-.17 0-.232l1.16-.671a.45.45 0 0 1 .4 0zM23.184 30.447c.108.062.109.17 0 .232l-1.16.671a.439.439 0 0 1-.395-.004l-1.166-.676c-.109-.063-.114-.166-.006-.229l1.16-.671a.45.45 0 0 1 .401 0zM16.897 30.723c.109.063.115.166.001.232l-1.3.753a.45.45 0 0 1-.401-.001l-1.16-.673c-.115-.066-.11-.17-.002-.232l1.302-.753a.43.43 0 0 1 .4 0zM20.745 30.903c.114.066.109.17.001.232l-1.16.671a.44.44 0 0 1-.401 0l-1.16-.674c-.114-.066-.11-.169-.001-.232l1.16-.671a.44.44 0 0 1 .4 0zM27.835 31.211c.113.066.108.17 0 .232l-1.16.672a.44.44 0 0 1-.4-.001l-1.161-.673c-.114-.066-.109-.17-.001-.232l1.16-.672a.44.44 0 0 1 .401.001zM24.881 31.43c.114.067.109.17.001.233l-1.16.671a.429.429 0 0 1-.396-.003l-1.16-.673c-.114-.066-.115-.167-.007-.23l1.161-.67a.44.44 0 0 1 .4 0zM22.448 31.89c.108.063.109.17 0 .232l-1.16.672a.45.45 0 0 1-.4-.001l-1.166-.676c-.109-.063-.11-.17-.001-.232l1.16-.672a.45.45 0 0 1 .401 0zM18.963 31.92c.109.064.11.164-.004.23l-1.301.753a.438.438 0 0 1-.395.002l-1.535-.89c-.108-.063-.109-.17 0-.232l1.3-.753a.44.44 0 0 1 .4.001zM29.537 32.198c.109.063.11.17.001.232l-1.16.672a.45.45 0 0 1-.401 0l-1.166-.677c-.109-.063-.109-.17 0-.232l1.16-.671a.45.45 0 0 1 .4 0zM26.584 32.418c.108.063.108.17 0 .232l-1.16.672a.438.438 0 0 1-.395-.004l-1.166-.676c-.109-.063-.114-.166-.006-.229l1.16-.672a.45.45 0 0 1 .401.001zM24.15 32.877c.11.063.11.17.002.232l-1.161.672a.45.45 0 0 1-.4 0l-1.167-.677c-.108-.063-.109-.17 0-.232l1.16-.671a.45.45 0 0 1 .4 0zM37.166 33.42c.108.063.109.17 0 .232l-.54.312a.44.44 0 0 1-.4 0l-1.166-.677c-.108-.063-.114-.166 0-.232l.54-.312a.45.45 0 0 1 .4 0zM31.24 33.186c.108.063.103.166-.005.229l-1.16.671a.439.439 0 0 1-.396.003l-1.165-.676c-.114-.067-.11-.17-.001-.232l1.16-.672a.44.44 0 0 1 .401 0zM28.281 33.403c.114.066.109.17 0 .232l-1.16.671a.43.43 0 0 1-.395-.004l-1.16-.673c-.109-.063-.115-.166-.007-.229l1.161-.671a.45.45 0 0 1 .4 0zM35.527 33.74c.114.065.11.169.001.231l-1.16.672a.44.44 0 0 1-.401 0l-1.16-.674c-.114-.066-.11-.17-.001-.232l1.16-.671a.44.44 0 0 1 .401 0zM25.848 33.862c.114.066.109.17 0 .232l-1.16.671a.44.44 0 0 1-.4 0l-1.161-.673c-.114-.066-.109-.17 0-.232l1.16-.672a.44.44 0 0 1 .4 0zM38.922 34.439c.114.066.11.17.001.232l-.54.312a.43.43 0 0 1-.4 0l-1.16-.674c-.114-.066-.115-.166-.001-.232l.54-.312a.44.44 0 0 1 .4 0zM32.937 34.17c.109.063.11.17.001.232l-1.16.672a.45.45 0 0 1-.401-.001l-1.16-.673c-.115-.066-.11-.17-.002-.232l1.161-.672a.44.44 0 0 1 .4.001zM29.984 34.39c.114.066.108.17 0 .232l-1.16.672a.429.429 0 0 1-.395-.004l-1.16-.673c-.115-.066-.115-.167-.007-.23l1.16-.67a.44.44 0 0 1 .401 0zM37.23 34.727c.109.063.109.17.001.232l-1.16.671a.45.45 0 0 1-.401 0l-1.166-.677c-.109-.062-.11-.169-.001-.231l1.16-.672a.45.45 0 0 1 .401 0zM27.55 34.85c.109.062.11.169.001.231l-1.16.672a.45.45 0 0 1-.4-.001l-1.167-.676c-.108-.063-.103-.166.005-.229l1.16-.672a.439.439 0 0 1 .396-.002zM40.685 35.46c.108.064.109.17 0 .233l-.54.312a.44.44 0 0 1-.4 0l-1.165-.677c-.109-.063-.11-.163.004-.229l.54-.312a.438.438 0 0 1 .395-.002zM34.64 35.158c.108.062.109.169 0 .231l-1.16.672a.45.45 0 0 1-.4 0l-1.167-.677c-.108-.063-.108-.17 0-.232l1.16-.671a.45.45 0 0 1 .4 0zM31.686 35.377c.109.063.11.17.001.232l-1.16.672a.439.439 0 0 1-.396-.004l-1.166-.676c-.108-.063-.114-.166-.006-.229l1.161-.671a.45.45 0 0 1 .4 0zM38.927 35.711c.114.066.109.17.001.232l-1.16.672a.44.44 0 0 1-.401-.001l-1.16-.673c-.109-.063-.11-.17-.001-.232l1.16-.672a.45.45 0 0 1 .401.001zM29.253 35.837c.109.062.103.166-.004.228l-1.161.672a.438.438 0 0 1-.395.002l-1.166-.676c-.108-.063-.109-.17 0-.232l1.16-.671a.45.45 0 0 1 .4 0zM42.447 36.483c.109.063.109.17 0 .232l-.539.312a.44.44 0 0 1-.4 0l-1.166-.677c-.109-.063-.114-.166-.001-.232l.54-.312a.45.45 0 0 1 .4 0zM36.337 36.142c.114.066.109.17 0 .232l-1.16.671a.44.44 0 0 1-.4 0l-1.16-.673c-.11-.063-.11-.17-.002-.232l1.161-.672a.45.45 0 0 1 .4 0zM33.39 36.365c.108.063.108.17 0 .232l-1.161.671a.438.438 0 0 1-.395-.003l-1.166-.676c-.108-.063-.114-.167-.006-.23l1.16-.671a.45.45 0 0 1 .401 0zM40.598 36.68c.108.063.108.17 0 .232l-1.16.671a.45.45 0 0 1-.4 0l-1.167-.677c-.108-.063-.109-.17 0-.232l1.16-.671a.45.45 0 0 1 .4 0zM27.455 36.846c.109.062.114.166 0 .231l-1.3.753a.45.45 0 0 1-.4 0l-7.923-4.595c-.108-.063-.109-.17 0-.232l1.3-.753a.44.44 0 0 1 .4.001zM38.04 37.13c.114.065.109.169 0 .231l-1.16.672a.44.44 0 0 1-.4 0l-1.167-.677c-.108-.063-.103-.166.005-.229l1.16-.671a.438.438 0 0 1 .396-.003zM35.086 37.35c.114.065.109.169.001.231l-1.16.672a.429.429 0 0 1-.396-.004l-1.16-.673c-.114-.066-.114-.166-.006-.229l1.16-.672a.44.44 0 0 1 .4.001zM32.653 37.808c.109.063.109.17.001.232l-1.16.672a.45.45 0 0 1-.401 0l-1.166-.677c-.109-.063-.11-.17-.001-.232l1.16-.672a.45.45 0 0 1 .401.001zM39.742 38.117c.109.063.11.17.001.232l-1.16.671a.45.45 0 0 1-.401 0l-1.166-.677c-.108-.063-.109-.17 0-.232l1.16-.671a.45.45 0 0 1 .4 0zM43.114 38.139c.108.063.103.166-.005.229l-1.16.671a.438.438 0 0 1-.396.003l-2.012-1.167c-.108-.063-.109-.17 0-.232l1.16-.672a.45.45 0 0 1 .4.001zM29.537 38.053c.109.063.115.166.001.232l-1.301.753a.45.45 0 0 1-.4-.001l-1.53-.887c-.113-.066-.109-.17 0-.232l1.3-.753a.43.43 0 0 1 .401.001zM36.789 38.337c.108.062.109.17 0 .231l-1.16.672a.439.439 0 0 1-.395-.004l-1.166-.676c-.108-.063-.114-.166-.006-.229l1.16-.671a.45.45 0 0 1 .401 0zM34.35 38.793c.114.066.109.17.001.231l-1.16.672a.44.44 0 0 1-.401 0l-1.16-.674c-.114-.066-.11-.169-.001-.232l1.16-.671a.44.44 0 0 1 .401 0zM41.445 39.104c.108.063.104.166-.005.229l-1.16.672a.439.439 0 0 1-.395.002l-1.166-.676c-.114-.066-.109-.17-.001-.232l1.16-.672a.44.44 0 0 1 .401.001zM31.321 39.088c.114.066.115.166.001.232l-1.301.752a.44.44 0 0 1-.4 0l-1.193-.692c-.109-.063-.11-.17-.001-.232l1.301-.753a.44.44 0 0 1 .4 0zM39.75 40.054c.108.062.108.17 0 .231l-1.16.672a.438.438 0 0 1-.396-.004l-2.407-1.396c-.114-.066-.114-.166-.006-.229l1.16-.671a.44.44 0 0 1 .401 0zM32.279 40.506c.114.066.114.167 0 .232l-.555.322a.44.44 0 0 1-.4 0l-1.194-.693c-.114-.066-.109-.17 0-.232l.555-.321a.43.43 0 0 1 .4 0zM38.081 41.019c.109.063.109.17.001.232l-1.155.668a.44.44 0 0 1-.4 0l-3.249-1.884c-.108-.063-.114-.167 0-.232l1.155-.669a.45.45 0 0 1 .4.001zM34.727 41.063c.108.062.114.166 0 .231l-1.3.753a.45.45 0 0 1-.401 0l-1.198-.695c-.109-.063-.11-.17-.001-.232l1.3-.753a.44.44 0 0 1 .401 0zM35.7 42.49c.114.067.115.167.001.232l-.556.322a.44.44 0 0 1-.4 0l-1.193-.692c-.114-.067-.11-.17-.001-.232l.556-.322a.43.43 0 0 1 .4 0zM18.13 27.516c.109.063.109.17.001.232l-1.16.671a.439.439 0 0 1-.396-.003l-2.408-1.397c-.113-.066-.114-.166-.006-.229l1.161-.671a.44.44 0 0 1 .4 0zM24.84 26.272c.109.063.104.166-.004.229l-.54.312a.429.429 0 0 1-.395.002l-1.166-.676c-.108-.062-.114-.166 0-.232l.539-.312a.45.45 0 0 1 .4 0zM23.078 25.25c.108.063.109.17 0 .232l-.54.312a.44.44 0 0 1-.4 0l-1.165-.677c-.109-.063-.115-.166-.001-.232l.54-.312a.45.45 0 0 1 .4 0zM23.625 26.837c.109.063.109.17.001.232l-1.16.671a.45.45 0 0 1-.401 0l-1.166-.676c-.109-.063-.11-.17-.001-.232l1.16-.672a.45.45 0 0 1 .401 0zM21.922 25.85c.109.062.11.169.001.231l-1.16.672a.45.45 0 0 1-.401 0l-1.166-.677c-.108-.063-.109-.17 0-.232l1.16-.671a.45.45 0 0 1 .4 0zM13.508 28.757c.109.063.115.167.001.232l-1.301.753a.45.45 0 0 1-.4 0l-1.166-.677c-.109-.063-.104-.166.004-.228l1.302-.753a.429.429 0 0 1 .395-.003zM15.206 29.742c.108.063.114.166 0 .232l-1.3.752a.45.45 0 0 1-.401 0l-1.166-.676c-.108-.063-.109-.17 0-.232l1.3-.753a.44.44 0 0 1 .4 0zM33.641 31.376c.114.066.109.17 0 .232l-.539.312a.43.43 0 0 1-.4 0l-1.16-.674c-.115-.066-.115-.166-.002-.232l.54-.312a.44.44 0 0 1 .4 0zM31.879 30.354c.114.066.109.17 0 .232l-.54.312a.43.43 0 0 1-.4 0l-1.16-.674c-.109-.063-.114-.166-.001-.232l.54-.312a.45.45 0 0 1 .4 0zM30.425 30.78c.114.066.109.17 0 .232l-1.16.672a.44.44 0 0 1-.4-.001l-1.161-.673c-.114-.066-.109-.17 0-.232l1.16-.671a.44.44 0 0 1 .4 0zM44.21 37.505c.108.063.103.166-.005.229l-.54.312a.429.429 0 0 1-.395.002l-1.166-.676c-.114-.066-.114-.166 0-.232l.54-.312a.44.44 0 0 1 .4 0zM30.95 36.82c.114.067.11.17.001.233l-1.16.671a.44.44 0 0 1-.401 0l-1.16-.673c-.114-.066-.11-.17-.001-.232l1.16-.672a.44.44 0 0 1 .401 0z" opacity="1" data-original="#5b5e71"></path><path fill="#cad0dd" d="M25.504 38.925c.199.115.2.296.003.41l-5.1 2.964a.772.772 0 0 1-.708 0l-8.816-5.083c-.195-.112-.2-.295-.002-.41l5.1-2.964a.778.778 0 0 1 .708 0z" opacity="1" data-original="#cad0dd"></path><path fill="#5b5e71" d="m44.207 39.827.002.64 1.43-.825-.001-.641zM42.529 40.796l.002.64 1.43-.825-.002-.641z" opacity="1" data-original="#5b5e71"></path><path fill="#ed435c" d="M22.86 7.48v.263l-.841-.485v-.263z" opacity="1" data-original="#ed435c"></path><path fill="#e4e8f4" d="M28.37 12.096v.262l-5.595-3.23.001-.262zM24.492 9.14l-.001.261-1.713-.99v-.26zM24.858 7.917l-.001.263-2.836-1.637V6.28z" opacity="1" data-original="#e4e8f4"></path><path fill="#efac41" d="m24.86 7.202-.001.263-2.836-1.637v-.263z" opacity="1" data-original="#efac41"></path><path fill="#ed435c" d="M32.544 14.505v.263l-3.818-2.204v-.262zM24.55 10.607v.263l-1.777-1.026.001-.263zM22.698 12.404l-.001.262-.692-.4v-.262z" opacity="1" data-original="#ed435c"></path><path fill="#3c5dd6" d="M25.813 18.504v.262l-1.418-.818v-.263z" opacity="1" data-original="#3c5dd6"></path><path fill="#ed435c" d="m23.437 16.415-.001.263-1.442-.832.001-.263z" opacity="1" data-original="#ed435c"></path><path fill="#e4e8f4" d="M24.132 17.533v.262l-2.14-1.234.001-.263z" opacity="1" data-original="#e4e8f4"></path><path fill="#efac41" d="M25.602 17.665v.263l-1.944-1.122v-.263z" opacity="1" data-original="#efac41"></path><path fill="#e4e8f4" d="M24.289 14.04v.261l-2.286-1.32v-.26zM26.085 16.51v.262l-4.086-2.358v-.263zM26.566 16.071l-.001.263L22 13.699v-.263zM25.98 14.3v.262l-2.976-1.719v-.262zM25.983 13.584v.263l-3.976-2.295v-.263z" opacity="1" data-original="#e4e8f4"></path><path fill="#3c5dd6" d="M27.445 15.863v.26l-2.925-1.688v-.26z" opacity="1" data-original="#3c5dd6"></path><path fill="#e4e8f4" d="M25.608 12.651v.263l-2.839-1.638.001-.263z" opacity="1" data-original="#e4e8f4"></path><path fill="#3c5dd6" d="M25.306 11.76v.262l-2.535-1.463.001-.263z" opacity="1" data-original="#3c5dd6"></path><path fill="#e4e8f4" d="M29.794 13.634v.263L24.81 11.02l.001-.263zM30.41 14.706l-.001.262-4.8-2.77v-.263zM32.542 15.22v.263l-2.175-1.255.001-.263zM32.546 13.79v.261l-5.29-3.053.002-.26z" opacity="1" data-original="#e4e8f4"></path><path fill="#efac41" d="M27.042 10.613v.26l-1.936-1.117.001-.26z" opacity="1" data-original="#efac41"></path><path fill="#e4e8f4" d="M32.54 15.936v.262l-1.754-1.012v-.263z" opacity="1" data-original="#e4e8f4"></path><path fill="#3c5dd6" d="M25.581 21.953v.262l-2.838-1.638v-.263z" opacity="1" data-original="#3c5dd6"></path><path fill="#e4e8f4" d="M26.726 21.897v.263l-3.98-2.298v-.263zM24.756 20.044v.262l-2.009-1.16v-.262zM27.54 20.934l-.001.261-2.836-1.637v-.261zM29.368 21.272v.263l-2.286-1.32v-.262z" opacity="1" data-original="#e4e8f4"></path><path fill="#ed435c" d="M33.383 20.724v.262L27.95 17.85v-.262z" opacity="1" data-original="#ed435c"></path><path fill="#e4e8f4" d="M26.83 19.807v.263l-1.148-.663.001-.263zM29.007 18.913v.263l-2.44-1.408.001-.263z" opacity="1" data-original="#e4e8f4"></path><path fill="#efac41" d="M40.048 24.571v.263l-2.586-1.493v-.262z" opacity="1" data-original="#efac41"></path><path fill="#e4e8f4" d="M30.768 21.364v.263l-2.958-1.708v-.262z" opacity="1" data-original="#e4e8f4"></path><path fill="#ed435c" d="m32.806 21.824-.001.263-5.145-2.97v-.263z" opacity="1" data-original="#ed435c"></path><path fill="#e4e8f4" d="M34.525 23.533v.263l-3.362-1.94v-.264z" opacity="1" data-original="#e4e8f4"></path><path fill="#efac41" d="M35.652 24.9v.263l-5.96-3.441v-.263z" opacity="1" data-original="#efac41"></path><path fill="#ed435c" d="M37.733 26.101v.263l-1.597-.922v-.262z" opacity="1" data-original="#ed435c"></path><path fill="#e4e8f4" d="M36.484 23.23v.263l-7.047-4.069v-.262zM37.122 22.882v.263l-3.524-2.035v-.262zM38.741 25.251v.263l-5.631-3.25V22zM40.042 26.718v.263l-5.186-2.993.001-.263zM40.044 26.003v.263l-1.008-.582v-.262zM40.046 25.286v.263l-3.304-1.907v-.263zM31.477 18.907v.262l-4.532-2.616.001-.262z" opacity="1" data-original="#e4e8f4"></path><path fill="#f9bb4a" d="m9.967 17.672-.01 4.501c-.004.173-.064.292-.159.349l-.993.577c.095-.056.159-.176.159-.348l.01-4.501c.004-.345-.243-.768-.542-.94l-3.916-2.261c-.151-.088-.289-.095-.39-.039l.992-.577c.102-.057.24-.05.391.038l3.916 2.261c.3.176.546.595.542.94z" opacity="1" data-original="#f9bb4a"></path><path fill="#efac41" d="M8.43 17.31c.302.174.547.594.546.94l-.013 4.501c-.001.346-.247.484-.548.31L4.5 20.8c-.301-.174-.545-.595-.544-.941l.012-4.5c.001-.347.247-.484.548-.31z" opacity="1" data-original="#efac41"></path><path fill="#ffffff" d="m5.322 17.775-.004 1.251-.253-.146.001-.514-.495-.286-.002.514-.25-.145.003-1.251.251.145-.001.493.495.286.001-.493zM6.405 18.4v.237l-.35-.202-.002 1.015-.251-.144.003-1.015-.35-.202.001-.237zM7.766 19.186v1.253l-.236-.136-.001-.752-.321.436-.114-.066-.317-.788-.002.734-.236-.136.004-1.251.205.118.407 1.015.405-.546zM8.28 19.482l-.004 1.015.547.316-.001.236-.797-.46.004-1.251z" opacity="1" data-original="#ffffff"></path><path fill="#75ca75" d="m12.973 4.633-.01 4.5c-.004.174-.064.293-.159.35l-.993.577c.095-.056.159-.176.159-.349l.01-4.5c.004-.345-.243-.768-.542-.94L7.522 2.01c-.151-.088-.289-.095-.39-.039l.992-.578c.102-.056.24-.049.391.04l3.916 2.26c.3.176.546.595.542.94z" opacity="1" data-original="#75ca75"></path><path fill="#65aa65" d="M11.437 4.27c.301.175.545.595.545.941l-.013 4.5c-.001.347-.247.485-.548.31l-3.915-2.26c-.301-.173-.545-.594-.544-.94l.012-4.5c.001-.347.247-.484.548-.31z" opacity="1" data-original="#65aa65"></path><path fill="#ffffff" d="M8.248 4.588c.128.074.24.161.343.272.1.108.188.232.255.367l-.216.106a.978.978 0 0 0-.367-.405.474.474 0 0 0-.24-.075.208.208 0 0 0-.168.096c-.04.06-.06.14-.061.241 0 .106.02.209.06.315.039.105.095.202.166.285a.862.862 0 0 0 .24.207c.148.085.268.09.368.015l.215.354a.373.373 0 0 1-.256.077.882.882 0 0 1-.348-.127 1.54 1.54 0 0 1-.403-.343 1.83 1.83 0 0 1-.283-.471 1.355 1.355 0 0 1-.099-.508c0-.165.033-.294.102-.388a.359.359 0 0 1 .284-.143.79.79 0 0 1 .408.125zM9.59 5.363c.096.055.188.117.276.196.088.078.167.16.231.243l-.104.234a1.53 1.53 0 0 0-.404-.366c-.095-.055-.163-.076-.211-.067-.045.011-.065.046-.065.101 0 .06.024.115.076.172.052.058.131.132.24.221.111.097.199.175.27.249.073.07.132.154.184.249.048.092.076.2.075.31 0 .096-.024.17-.072.22-.045.052-.117.075-.209.068s-.208-.051-.34-.127a2.129 2.129 0 0 1-.335-.244 1.708 1.708 0 0 1-.26-.293l.117-.227c.064.092.136.175.224.258.084.08.171.15.255.198.096.056.168.079.216.074.044-.006.068-.039.069-.094l-.04-.12a.646.646 0 0 0-.104-.123c-.044-.044-.1-.09-.171-.155a4.877 4.877 0 0 1-.276-.246 1.124 1.124 0 0 1-.18-.25.653.653 0 0 1-.074-.316c0-.096.02-.172.068-.222.044-.057.116-.075.209-.068a.84.84 0 0 1 .335.125zM10.92 6.13c.097.056.184.116.276.197.088.078.164.159.232.244l-.105.234a1.551 1.551 0 0 0-.403-.366c-.096-.056-.164-.077-.212-.068-.044.012-.068.044-.068.099 0 .06.027.117.08.175.051.057.13.13.239.22.111.097.2.175.271.25.072.068.132.153.183.248.048.092.076.2.076.31 0 .096-.025.17-.073.22-.044.053-.116.075-.208.068s-.208-.051-.34-.127a2.129 2.129 0 0 1-.336-.244 1.626 1.626 0 0 1-.259-.293l.117-.226c.06.09.135.174.223.257.084.08.172.15.256.198.096.056.168.079.216.074.044-.006.068-.039.068-.094l-.04-.12a.645.645 0 0 0-.103-.123c-.044-.044-.1-.09-.176-.157-.108-.09-.2-.175-.272-.244a1.154 1.154 0 0 1-.183-.253.694.694 0 0 1-.075-.315c0-.096.024-.17.073-.22.044-.057.112-.078.208-.068a.84.84 0 0 1 .336.125z" opacity="1" data-original="#ffffff"></path><path fill="#ebc5b2" d="m17.734 15.679-.01 4.5c-.004.173-.064.292-.159.349l-.993.577c.095-.056.159-.176.159-.348l.01-4.5c.004-.346-.243-.769-.542-.941l-3.916-2.261c-.152-.088-.289-.095-.391-.039l.993-.577c.102-.057.24-.05.391.039l3.916 2.26c.3.176.546.595.542.94z" opacity="1" data-original="#ebc5b2"></path><path fill="#ddaf9b" d="M16.198 15.316c.301.174.545.594.544.94l-.012 4.501c-.001.346-.247.484-.548.31l-3.915-2.26c-.301-.174-.546-.595-.545-.94l.013-4.502c.001-.346.247-.483.548-.31z" opacity="1" data-original="#ddaf9b"></path><path fill="#ffffff" d="m13.452 15.946-.002.435-1.014-.156 1.012 1.006-.001.435-1.442-1.47v-.448zM14.962 15.96l-1.01 2.708-.42-.242 1.011-2.707zM15.018 16.85l1.442 1.47-.001.448-1.446-.198.001-.435 1.009.16-1.006-1.01z" opacity="1" data-original="#ffffff"></path><path fill="#f25574" d="m48.411 26.133-.01 4.5c-.004.173-.064.293-.159.35l-.993.577c.095-.057.159-.176.159-.349l.01-4.5c.004-.346-.243-.768-.542-.94l-3.916-2.262c-.151-.088-.289-.095-.39-.038l.992-.578c.102-.056.24-.05.391.039l3.916 2.26c.3.177.546.596.542.94z" opacity="1" data-original="#f25574"></path><path fill="#ed435c" d="M46.875 25.77c.301.174.545.595.545.94l-.013 4.501c-.001.347-.247.484-.548.31l-3.915-2.26c-.301-.174-.545-.594-.544-.94l.012-4.501c.001-.346.247-.484.548-.31z" opacity="1" data-original="#ed435c"></path><path fill="#ffffff" d="M43.902 26.611a.787.787 0 0 1 .065.316c0 .108-.021.191-.066.245-.045.053-.108.077-.19.069a.677.677 0 0 1-.292-.105l-.255-.147-.002.401-.29-.168.004-1.45.546.315c.111.064.208.14.29.232.084.091.146.187.19.292zm-.298.293c.045-.017.07-.063.07-.146a.415.415 0 0 0-.07-.227.574.574 0 0 0-.2-.18l-.238-.137-.002.505.239.137c.086.05.156.066.2.048M45.335 27.191l-.004 1.451-.29-.168.001-.596-.574-.331-.002.596-.294-.17.004-1.45.294.17-.001.572.574.331.001-.572zM46.662 28.205a.788.788 0 0 1 .065.316c0 .107-.021.19-.066.244-.046.053-.108.077-.191.069a.677.677 0 0 1-.29-.104l-.257-.148v.402l-.291-.168.004-1.45.546.315c.11.064.208.14.29.231.083.092.146.187.19.293zm-.299.293c.046-.018.07-.064.07-.147a.415.415 0 0 0-.068-.227.563.563 0 0 0-.2-.179l-.24-.138v.505l.238.138c.09.052.155.066.2.048" opacity="1" data-original="#ffffff"></path><path fill="#576cfb" d="m43.086 10.506-.011 4.5c-.004.173-.063.293-.159.35l-.993.577c.095-.057.159-.176.159-.349l.01-4.5c.004-.346-.243-.768-.542-.94l-3.916-2.262c-.151-.088-.289-.095-.39-.038l.992-.578c.102-.056.24-.05.391.039l3.916 2.26c.3.177.546.596.543.941z" opacity="1" data-original="#576cfb"></path><path fill="#4562ef" d="M41.549 10.143c.301.174.546.595.545.94l-.013 4.501c-.001.347-.247.484-.548.31l-3.915-2.26c-.301-.174-.545-.594-.544-.94l.012-4.501c.001-.346.247-.484.548-.31z" opacity="1" data-original="#4562ef"></path><path fill="#ffffff" d="m39.235 9.638-.001.537-.073-.042c-.088-.05-.161-.068-.205-.034-.051.02-.073.092-.074.193l-.002.704c0 .151-.022.248-.059.294-.044.05-.11.063-.198.045a.845.845 0 0 1 .197.273c.036.097.058.219.058.37l-.002.696a.537.537 0 0 0 .276.487l.073.043-.001.529-.227-.131a1.422 1.422 0 0 1-.532-.51 1.29 1.29 0 0 1-.181-.684l.002-.788-.043-.185-.124-.122-.124-.072.001-.537.124.072.125.021.044-.125.002-.797c0-.252.06-.411.184-.474.118-.067.3-.028.534.107zM40.163 10.174c.24.139.416.307.54.513.123.206.18.432.18.684l-.002.797.043.177.124.121.124.072-.001.537-.124-.072-.124-.02-.045.133-.002.789c0 .251-.06.41-.184.473-.125.063-.3.03-.541-.11l-.22-.127.002-.528.073.042c.088.05.154.055.205.034.044-.033.074-.092.074-.2l.002-.697c0-.151.015-.252.06-.303.043-.05.102-.066.197-.045a.777.777 0 0 1-.197-.273.845.845 0 0 1-.057-.361l.002-.705c0-.1-.03-.201-.073-.277a.533.533 0 0 0-.204-.202l-.073-.042.002-.537z" opacity="1" data-original="#ffffff"></path><path fill="#e4e8f4" d="M11.925 9.931a.517.517 0 0 0 .044-.22l.006-2.123-.005 2.123c0 .088-.017.16-.045.22z" opacity="1" data-original="#e4e8f4"></path></g></svg>