<svg xmlns="http://www.w3.org/2000/svg" version="1.1" xmlns:xlink="http://www.w3.org/1999/xlink" width="512" height="512" x="0" y="0" viewBox="0 0 64 64" style="enable-background:new 0 0 512 512" xml:space="preserve"><g><rect width="42" height="57" x="5" y="6" fill="#d08f87" rx="2" opacity="1" data-original="#d08f87"></rect><path fill="#c47369" d="M8 7.5h37a2 2 0 0 1 2 2V61a2 2 0 0 1-2 2H8.5a2 2 0 0 1-2-2V9A1.5 1.5 0 0 1 8 7.5z" opacity="1" data-original="#c47369"></path><path fill="#f8faff" d="M8 9h36v51H8z" opacity="1" data-original="#f8faff"></path><path fill="#baddff" d="M32 5V3a2 2 0 0 0-2-2h-8a2 2 0 0 0-2 2v2h-2a2 2 0 0 0-2 2v2a2 2 0 0 0 2 2h16a2 2 0 0 0 2-2V7a2 2 0 0 0-2-2z" opacity="1" data-original="#baddff"></path><path fill="#a9d4ff" d="M34 5h-2V4a1 1 0 0 0-1-1h-8a1 1 0 0 0-1 1v3h-3a1 1 0 0 0-1 1v2a1 1 0 0 0 1 1h15a2 2 0 0 0 2-2V7a2 2 0 0 0-2-2z" opacity="1" data-original="#a9d4ff"></path><path fill="#92cdfc" d="M28 5.75h-4a.75.75 0 0 1 0-1.5h4a.75.75 0 0 1 0 1.5z" opacity="1" data-original="#92cdfc"></path><path fill="#ff5775" d="M25 16h14v10H25zM25 30h14v10H25z" opacity="1" data-original="#ff5775"></path><path fill="#55f5b4" d="M25 44h14v10H25z" opacity="1" data-original="#55f5b4"></path><g fill="#3b687a"><path d="M13 21.75h2.25V24a.75.75 0 0 0 1.5 0v-2.25H19a.75.75 0 0 0 0-1.5h-2.25V18a.75.75 0 0 0-1.5 0v2.25H13a.75.75 0 0 0 0 1.5zM19 34.25h-2.25V32a.75.75 0 0 0-1.5 0v2.25H13a.75.75 0 0 0 0 1.5h2.25V38a.75.75 0 0 0 1.5 0v-2.25H19a.75.75 0 0 0 0-1.5zM19 48.25h-2.25V46a.75.75 0 0 0-1.5 0v2.25H13a.75.75 0 0 0 0 1.5h2.25V52a.75.75 0 0 0 1.5 0v-2.25H19a.75.75 0 0 0 0-1.5zM29.862 51.78l-1.285-1.286a.749.749 0 0 1 0-1.06.75.75 0 0 1 1.061 0l.755.755 3.969-3.969a.75.75 0 0 1 1.061 0 .749.749 0 0 1 0 1.06l-4.5 4.5a.75.75 0 0 1-1.061 0z" fill="#3b687a" opacity="1" data-original="#3b687a"></path></g><path fill="#ff5775" d="M53 19h6v34h-6z" opacity="1" data-original="#ff5775"></path><path fill="#f93862" d="M56 19h3v34h-3z" opacity="1" data-original="#f93862"></path><path fill="#ffcdc2" d="m53 53 3 10 3-10z" opacity="1" data-original="#ffcdc2"></path><path fill="#eef3ff" d="M53 16h6v-4a3 3 0 0 0-3-3 3 3 0 0 0-3 3z" opacity="1" data-original="#eef3ff"></path><path fill="#a9d4ff" d="M53 16h6v3h-6z" opacity="1" data-original="#a9d4ff"></path></g></svg>