<svg xmlns="http://www.w3.org/2000/svg" version="1.1" xmlns:xlink="http://www.w3.org/1999/xlink" width="512" height="512" x="0" y="0" viewBox="0 0 60 60" style="enable-background:new 0 0 512 512" xml:space="preserve"><g><path fill="#b5bbc6" d="M48 49s-5-1-6-6v-1H28v1c-1 5-6 6-6 6v1h26z" opacity="1" data-original="#b5bbc6"></path><path fill="#ccd0da" d="M59 37v3a3 3 0 0 1-3 3H18.35l-1.47-6 .12-1h41z" opacity="1" data-original="#ccd0da"></path><path fill="#383838" d="M59 4v33H16.88L11 13.05V4a3 3 0 0 1 3-3h42a3 3 0 0 1 3 3z" opacity="1" data-original="#383838"></path><path fill="#494949" d="M15 13V6a1 1 0 0 1 1-1h38a1 1 0 0 1 1 1v26a1 1 0 0 1-1 1H21z" opacity="1" data-original="#494949"></path><path fill="#ccd0da" d="M21.35 49H51a1 1 0 0 1 1 1 3 3 0 0 1-3 3H25.66" opacity="1" data-original="#ccd0da"></path><path fill="#80624b" d="M27 23v5l-8 8H9l-8-8v-5a10 10 0 0 1 10-10h9.58a1.42 1.42 0 0 1 1.29 2 1.271 1.271 0 0 1-.29.42L20 17h1a6 6 0 0 1 6 6z" opacity="1" data-original="#80624b"></path><path fill="#e2ac7f" d="M11 42h6v7h-6z" opacity="1" data-original="#e2ac7f"></path><path fill="#eebd91" d="M5.471 29.884a9.67 9.67 0 0 0 17.058 0A4.139 4.139 0 0 0 23 27.99 2 2 0 0 1 25 26a2 2 0 0 1 2 2v3a3 3 0 0 1-3 3 10 10 0 0 1-10 10A10 10 0 0 1 4 34a3 3 0 0 1-3-3v-3a2 2 0 0 1 2-2 2 2 0 0 1 2 1.99 4.139 4.139 0 0 0 .471 1.894z" opacity="1" data-original="#eebd91"></path><path fill="#2783ec" d="M17 48a10 10 0 0 1 10 10 1 1 0 0 1-1 1H2a1 1 0 0 1-1-1 10 10 0 0 1 10-10z" opacity="1" data-original="#2783ec"></path><path fill="#725542" d="M21.87 15a1.271 1.271 0 0 1-.29.42L20 17h-4a1 1 0 0 1 0-2z" opacity="1" data-original="#725542"></path><path fill="#f0f2f5" d="M20 10h-1a1 1 0 0 1 0-2h1a1 1 0 0 1 0 2z" opacity="1" data-original="#f0f2f5"></path><path fill="#a696f0" d="M39 10H24a1 1 0 0 1 0-2h15a1 1 0 0 1 0 2z" opacity="1" data-original="#a696f0"></path><path fill="#3fdab1" d="M46 10h-3a1 1 0 0 1 0-2h3a1 1 0 0 1 0 2z" opacity="1" data-original="#3fdab1"></path><path fill="#a696f0" d="M39 30h-8a1 1 0 0 1 0-2h8a1 1 0 0 1 0 2z" opacity="1" data-original="#a696f0"></path><path fill="#3fdab1" d="M46 30h-3a1 1 0 0 1 0-2h3a1 1 0 0 1 0 2z" opacity="1" data-original="#3fdab1"></path><path fill="#fccb55" d="M33 14h-7a1 1 0 0 1 0-2h7a1 1 0 0 1 0 2z" opacity="1" data-original="#fccb55"></path><path fill="#a696f0" d="M33 18h-4a1 1 0 0 1 0-2h4a1 1 0 0 1 0 2z" opacity="1" data-original="#a696f0"></path><path fill="#3fdab1" d="M40 14h-3a1 1 0 0 1 0-2h3a1 1 0 0 1 0 2z" opacity="1" data-original="#3fdab1"></path><path fill="#fccb55" d="M35 26h-4a1 1 0 0 1 0-2h4a1 1 0 0 1 0 2z" opacity="1" data-original="#fccb55"></path><path fill="#a696f0" d="M40 22h-9a1 1 0 0 1 0-2h9a1 1 0 0 1 0 2z" opacity="1" data-original="#a696f0"></path><path fill="#3fdab1" d="M45 22h-1a1 1 0 0 1 0-2h1a1 1 0 0 1 0 2z" opacity="1" data-original="#3fdab1"></path><path fill="#935d38" d="M60 53a1 1 0 0 1-1 1H26.16a9.278 9.278 0 0 0-1.17-2H59a1 1 0 0 1 1 1z" opacity="1" data-original="#935d38"></path></g></svg>